<svg width="4639" height="1078" viewBox="0 0 4639 1078" fill="none" xmlns="http://www.w3.org/2000/svg">
<path d="M475.04 123.579C476.963 123.578 478.886 123.576 480.867 123.574C512.358 123.619 542.852 125.254 573.74 131.855C575.733 132.279 577.727 132.702 579.781 133.139C701.534 160.083 810.524 235.073 877.999 340.088C889.858 359.059 900.281 378.799 910.157 398.865C910.983 400.483 911.81 402.101 912.662 403.768C915.052 409.419 915.052 409.419 916.66 416.791C919.593 427.784 922.483 436.69 932.577 442.944C947.635 449.973 963.609 454.436 979.525 459.075C986.687 461.282 993.838 463.523 1000.99 465.773C1005.42 467.155 1009.86 468.507 1014.31 469.821C1034.16 475.775 1053.96 482.908 1067.14 499.609C1074.54 514.418 1071.8 530.946 1070.43 546.927C1070.06 551.49 1070.06 551.49 1069.68 556.146C1062 649.564 1062 649.564 1041.61 669.953C1023.09 681.577 1001.77 675.157 981.436 671.863C978.236 671.365 975.036 670.868 971.74 670.356C963.877 669.13 956.019 667.881 948.164 666.61C948.041 668.174 947.918 669.737 947.792 671.347C938.183 780.625 873.613 889.537 791.261 960.415C689.333 1045.42 563.685 1086.72 431.013 1075.4C307.317 1062.9 190.53 1003.09 110.406 907.489C83.7113 874.676 61.6823 839.949 43.9427 801.572C41.9037 797.22 41.9037 797.22 39.8236 792.779C12.6928 732.348 0.0619765 668.367 0.005208 602.313C0.00348937 600.51 0.00177072 598.707 0 596.849C0.186517 473.153 47.9807 360.416 131.022 269.523C132.79 267.584 132.79 267.584 134.593 265.606C169.569 228.166 212.897 199.046 257.899 175.145C259.505 174.286 261.111 173.428 262.766 172.543C308.615 148.474 359.657 134.16 410.725 126.762C412.426 126.504 414.126 126.245 415.878 125.978C435.483 123.371 455.297 123.595 475.04 123.579ZM347.207 234.191C344.411 234.977 344.411 234.977 341.559 235.779C319.542 242.288 298.869 251.666 278.276 261.724C275.311 263.169 272.346 264.613 269.292 266.101C176.882 313.582 107.733 398.247 74.508 495.998C69.6176 511.949 65.4108 528.099 61.7724 544.381C61.315 546.306 60.8576 548.23 60.3863 550.213C53.0896 593.576 56.0416 647.027 66.8666 689.529C67.3727 691.608 67.8787 693.687 68.4001 695.829C76.4677 728.387 87.503 758.857 102.526 788.84C103.389 790.568 104.251 792.297 105.14 794.077C128.508 840.003 161.86 883.564 201.863 916.163C204.368 918.254 206.874 920.345 209.455 922.499C298.199 995.34 406.171 1025.87 520.148 1017.47C534.791 1015.95 549.166 1013.48 563.552 1010.38C565.472 1009.97 567.392 1009.56 569.371 1009.14C628.18 995.997 678.881 965.548 724.019 926.349C726.377 924.333 728.734 922.318 731.163 920.241C747.675 905.745 761.567 890.255 774.961 872.873C776.816 870.579 778.671 868.284 780.583 865.92C845.282 783.792 871.648 675.455 859.598 572.322C845.299 467.284 790.109 369.103 706.189 303.9C658.725 267.925 606.161 242.771 548.269 228.621C545.048 227.807 541.827 226.992 538.508 226.154C511.872 220.247 484.844 220.18 457.688 220.026C454.883 219.996 454.883 219.996 452.021 219.965C416.24 219.668 381.706 224.445 347.207 234.191Z" fill="#DDDDDD"/>
<path d="M604.767 491.051C632.048 512.562 651.837 536.822 668.7 567.144C669.934 569.361 671.167 571.579 672.438 573.863C698.416 625.496 698.684 689.396 681.256 743.524C660.459 801.721 619.65 846.916 564.076 873.791C507.256 898.445 445.402 900.316 387.158 879.507C360.204 868.537 336.83 853.429 314.943 834.338C313.382 832.99 311.82 831.642 310.211 830.253C271.061 793.89 247.9 739.453 245.264 686.646C243.833 636.863 252.052 597.564 276.768 554.42C277.999 552.255 279.229 550.09 280.496 547.86C311.205 498.375 360.98 466.556 416.525 451.847C482.543 437.057 550.171 451.276 604.767 491.051Z" fill="#626262"/>
<path d="M591.438 195.24C593.258 195.779 595.078 196.318 596.954 196.873C703.907 229.046 793.924 301.26 847.348 399.623C852.513 409.515 857.272 419.567 861.826 429.753C862.88 432.101 862.88 432.101 863.955 434.497C908.305 535.075 908.973 648.912 869.885 751.203C856.909 783.583 841.982 814.709 821.013 842.701C819.04 845.421 817.067 848.142 815.034 850.945C786.361 889.576 751.665 923.486 711.327 949.761C708.971 951.296 708.971 951.296 706.567 952.863C688.98 964.152 670.867 974.185 652.02 983.218C650.407 984.002 648.794 984.787 647.133 985.595C635.731 990.856 635.731 990.856 627.149 987.997C629.865 986.637 632.581 985.276 635.38 983.875C668.921 966.788 698.644 947.497 726.213 921.741C730.946 917.354 735.782 913.318 740.821 909.295C753.103 898.832 762.651 885.947 772.547 873.289C775.354 869.824 775.354 869.824 778.217 866.289C842.951 784.03 869.378 675.688 857.308 572.431C845.269 484.031 805.547 409.447 747.039 343.085C744.661 340.379 744.661 340.379 742.236 337.619C691.418 283.534 619.375 248.347 548.073 230.927C544.848 230.112 541.622 229.297 538.298 228.457C511.623 222.545 484.555 222.478 457.359 222.324C454.55 222.293 454.55 222.293 451.684 222.262C415.85 221.965 381.266 226.747 346.717 236.503C344.85 237.027 342.983 237.552 341.06 238.092C319.011 244.608 298.307 253.996 277.685 264.064C273.231 266.233 273.231 266.233 268.687 268.446C177.028 315.52 109.117 399.134 76.1684 496.029C70.0043 516.125 64.7678 536.548 60.8633 557.206C60.0216 557.206 59.1798 557.206 58.3125 557.206C58.4996 508.506 75.8041 460.472 96.5751 417.008C97.8081 414.427 97.8081 414.427 99.0661 411.794C128.794 350.764 174.836 299.104 229.219 258.966C230.698 257.871 232.177 256.776 233.701 255.648C283.626 219.25 342.053 196.038 402.676 185.044C405.096 184.521 407.516 183.999 410.009 183.46C468.295 172.23 534.749 178.2 591.438 195.24Z" fill="#2F284D"/>
<path d="M505.375 551.729C508.469 552.71 508.469 552.71 511.626 553.711C542.424 564.728 565.208 586.834 580.071 615.654C593.826 645.135 596.945 675.893 586.92 707.317C586.266 709.382 585.612 711.447 584.939 713.574C574.401 743.09 553.132 766.622 525.283 780.807C494.087 795.587 461.251 799.368 427.782 788.848C398.008 777.575 372.347 756.18 357.576 727.722C342.537 692.584 340.812 659.834 352.479 623.146C364.435 593.487 389.044 569.502 417.838 556.282C446.15 544.606 475.802 542.276 505.375 551.729Z" fill="#010101"/>
<path d="M971.754 33.2932C976.983 38.1929 976.983 38.1929 979.36 43.4088C978.371 53.7964 975.406 58.5601 968.11 65.8529C941.04 95.1193 915.947 134.555 903.306 172.383C895.153 168.906 888.793 164.008 881.979 158.404C819.722 107.271 746.566 77.0016 667.541 63.6401C663.355 62.9262 663.355 62.9262 659.085 62.1979C645.924 60.6583 632.768 60.1886 619.533 59.6887C616.832 59.5795 614.131 59.4703 611.348 59.3578C604.729 59.0913 598.109 58.833 591.488 58.5823C594.955 48.2077 599.395 47.3499 609.076 42.4605C697.63 -1.00133 885.138 -22.0058 971.754 33.2932Z" fill="#DDDDDD"/>
<path d="M622.736 505.926C641.672 523.964 655.821 543.895 668.43 566.725C669.657 568.929 670.884 571.134 672.148 573.405C687.727 604.262 694.522 641.303 691.277 675.658C688.738 678.191 688.738 678.191 681.916 678.983C663.806 677.278 652.85 663.607 641.428 650.542C625.226 629.429 613.757 605.578 603.539 581.133C592.723 555.413 577.285 535.73 557.191 516.405C529.576 489.391 529.576 489.391 528.018 476.634C528.279 474.596 528.541 472.559 528.811 470.459C559.658 449.937 599.609 485.268 622.736 505.926Z" fill="#FED405"/>
<path d="M1287.37 767.103H1199V372H1293.26L1421.09 570.141L1454.08 623.215H1459.98L1458.8 570.141V372H1547.16V767.103H1452.91L1330.37 580.166L1292.08 519.426H1286.19L1287.37 580.166V767.103Z" fill="#DDDDDD"/>
<path d="M1684.76 436.868H1598.16L1596.99 372H1684.76V436.868ZM1686.53 767.103H1598.16V470.481H1686.53V767.103Z" fill="#DDDDDD"/>
<path d="M1870.69 768.282C1793.52 768.282 1756.4 739.976 1756.4 669.801V543.604H1709.27V470.481H1758.76L1775.26 401.485H1844.77V470.481H1928.42V543.604H1844.77V659.776C1844.77 685.724 1853.61 688.672 1891.9 688.672H1928.42V762.385C1914.29 765.334 1891.31 768.282 1870.69 768.282Z" fill="#DDDDDD"/>
<path d="M2102.65 773C2007.21 773 1950.66 712.85 1950.66 619.087C1950.66 524.734 2007.21 464.584 2102.65 464.584C2197.49 464.584 2252.87 524.734 2252.87 619.087C2252.87 712.85 2197.49 773 2102.65 773ZM2102.65 695.159C2150.37 695.159 2166.86 676.288 2166.86 619.087C2166.86 561.296 2150.37 542.425 2102.65 542.425C2054.34 542.425 2037.85 561.296 2037.85 619.087C2037.85 676.288 2054.34 695.159 2102.65 695.159Z" fill="#DDDDDD"/>
<path d="M2438.05 773C2342.61 773 2286.06 712.85 2286.06 619.087C2286.06 524.734 2342.61 464.584 2438.05 464.584C2532.9 464.584 2588.27 524.734 2588.27 619.087C2588.27 712.85 2532.9 773 2438.05 773ZM2438.05 695.159C2485.77 695.159 2502.26 676.288 2502.26 619.087C2502.26 561.296 2485.77 542.425 2438.05 542.425C2389.74 542.425 2373.25 561.296 2373.25 619.087C2373.25 676.288 2389.74 695.159 2438.05 695.159Z" fill="#DDDDDD"/>
<path d="M2716.39 767.103H2628.61V470.481H2710.5V522.375H2714.03C2729.94 488.762 2761.75 464.584 2813.59 464.584C2890.77 464.584 2923.76 515.888 2923.76 578.987V767.103H2835.39V596.678C2835.39 555.399 2821.84 540.656 2777.07 540.656C2734.65 540.656 2716.39 554.219 2716.39 599.037V767.103Z" fill="#DDDDDD"/>
<path d="M3104.56 773C3011.48 773 2966.12 738.207 2966.12 666.263V664.494H3050.36V676.878C3050.36 698.697 3063.33 703.415 3106.33 703.415C3142.27 703.415 3148.16 698.107 3148.16 683.365C3148.16 667.443 3139.91 663.904 3100.44 656.828L3055.67 648.572C2997.34 637.957 2965.53 613.19 2965.53 558.347C2965.53 503.504 3010.31 464.584 3094.55 464.584C3167.01 464.584 3222.38 498.787 3222.38 565.424V573.679H3138.14V565.424C3138.14 545.963 3129.89 535.349 3092.19 535.349C3056.84 535.349 3048.6 543.015 3048.6 557.168C3048.6 571.321 3053.9 575.449 3089.25 582.525L3143.44 593.729C3205.89 605.524 3231.81 633.829 3231.81 682.185C3231.81 737.618 3186.45 773 3104.56 773Z" fill="#DDDDDD"/>
<path d="M3676.77 767.103H3384.57V372H3472.94V687.493H3676.77V767.103Z" fill="#DDDDDD"/>
<path d="M3793.79 773C3741.36 773 3700.71 745.284 3700.71 691.621C3700.71 645.624 3733.7 617.318 3794.97 607.882L3896.3 592.55V583.115C3896.3 548.322 3877.45 541.835 3842.69 541.835C3806.75 541.835 3792.62 551.86 3792.62 581.935V588.422H3708.37V581.935C3708.37 511.171 3763.16 464.584 3846.81 464.584C3934 464.584 3979.95 512.35 3979.95 591.371V767.103H3898.07V727.003H3894.53C3878.63 748.822 3848.58 773 3793.79 773ZM3784.96 684.544C3784.96 700.466 3797.33 705.774 3823.25 705.774C3859.18 705.774 3896.3 696.338 3896.3 650.341L3811.47 663.315C3793.2 666.263 3784.96 672.16 3784.96 684.544Z" fill="#DDDDDD"/>
<path d="M4114.24 767.103H4032.35V372H4120.13V511.76H4123.66C4137.21 486.993 4169.02 464.584 4213.8 464.584C4295.09 464.584 4338.1 525.324 4338.1 619.087C4338.1 712.26 4295.09 773 4214.39 773C4168.44 773 4133.09 755.309 4117.18 723.465H4114.24V767.103ZM4120.13 642.675C4120.13 682.775 4143.69 697.518 4185.52 697.518C4236.18 697.518 4250.32 672.75 4250.32 619.087C4250.32 564.834 4236.77 540.066 4185.52 540.066C4143.69 540.066 4120.13 554.809 4120.13 594.909V642.675Z" fill="#DDDDDD"/>
<path d="M4511.75 773C4418.67 773 4373.31 738.207 4373.31 666.263V664.494H4457.55V676.878C4457.55 698.697 4470.51 703.415 4513.52 703.415C4549.46 703.415 4555.35 698.107 4555.35 683.365C4555.35 667.443 4547.1 663.904 4507.63 656.828L4462.86 648.572C4404.53 637.957 4372.72 613.19 4372.72 558.347C4372.72 503.504 4417.49 464.584 4501.74 464.584C4574.2 464.584 4629.57 498.787 4629.57 565.424V573.679H4545.33V565.424C4545.33 545.963 4537.08 535.349 4499.38 535.349C4464.03 535.349 4455.79 543.015 4455.79 557.168C4455.79 571.321 4461.09 575.449 4496.44 582.525L4550.63 593.729C4613.08 605.524 4639 633.829 4639 682.185C4639 737.618 4593.64 773 4511.75 773Z" fill="#DDDDDD"/>
</svg>
